<svg width="140" height="32" viewBox="0 0 140 32" fill="none" xmlns="http://www.w3.org/2000/svg">
  <g transform="translate(0, 4)">
    <path d="M18.2533 5.8593L15.3933 11.4393L12.5333 5.8593H8.8933L13.9633 15.8193V22.3593H16.8433V15.8193L21.9133 5.8593H18.2533Z" fill="#E6EEF8"/>
    <path d="M29.6333 14.1393C29.6333 18.2193 26.9933 22.5993 22.4333 22.5993C17.8733 22.5993 15.2333 18.2193 15.2333 14.1393C15.2333 10.0593 17.8733 5.6793 22.4333 5.6793C26.9933 5.6793 29.6333 10.0593 29.6333 14.1393ZM18.0833 14.1393C18.0833 16.9293 19.5833 20.0193 22.4333 20.0193C25.2833 20.0193 26.7833 16.9293 26.7833 14.1393C26.7833 11.3493 25.2833 8.2593 22.4333 8.2593C19.5833 8.2593 18.0833 11.3493 18.0833 14.1393Z" fill="#E6EEF8"/>
    <text x="32" y="18" font-family="Outfit, sans-serif" font-size="20" font-weight="700" fill="#E6EEF8">AVIATOR</text>
  </g>
  <g transform="translate(110, 0) rotate(18 12 12)">
    <path d="M2.92893 19.0711C2.53841 18.6805 2.53841 18.0474 2.92893 17.6569L17.6569 2.92893C18.0474 2.53841 18.6805 2.53841 19.0711 2.92893C19.4616 3.31946 19.4616 3.95262 19.0711 4.34315L4.34315 19.0711C3.95262 19.4616 3.31946 19.4616 2.92893 19.0711Z" fill="#8A3FFC"/>
    <path d="M12 24L12 2.5" stroke="#8A3FFC" stroke-width="3" stroke-linecap="round"/>
  </g>
</svg>
